<svg xmlns="http://www.w3.org/2000/svg" width="320" height="106" fill="none" viewBox="0 0 320 106"><path stroke="#F7F7F7" stroke-width="2" d="M319 53C319 59.8773 314.793 66.5906 306.81 72.8427C298.839 79.0854 287.242 84.751 272.823 89.5274C243.995 99.0767 204.106 105 160 105C115.894 105 76.0054 99.0767 47.1774 89.5274C32.7581 84.751 21.1614 79.0854 13.1902 72.8427C5.20698 66.5906 1 59.8773 1 53C1 46.1227 5.20698 39.4094 13.1902 33.1573C21.1614 26.9146 32.7581 21.249 47.1774 16.4726C76.0054 6.92334 115.894 1 160 1C204.106 1 243.995 6.92334 272.823 16.4726C287.242 21.249 298.839 26.9146 306.81 33.1573C314.793 39.4094 319 46.1227 319 53Z"/></svg>