<svg width="668" height="627" viewBox="0 0 668 627" fill="none" xmlns="http://www.w3.org/2000/svg">
    <path d="M217.659 624.087L167.587 617.145L158.488 607.934L151.667 590.097L147.441 564.474L146.012 532.257L147.441 494.964L151.667 454.322L158.488 412.25L167.587 370.7L178.539 331.62L190.824 296.838L203.886 267.982L217.095 246.4L229.845 233.095L241.535 228.7" stroke="#231F20" stroke-linecap="round" stroke-linejoin="round"/>
    <path d="M-55.1421 220.128L-20.1412 197.311L19.1432 180.778L60.8752 171.303L103.098 169.335L143.849 174.959L179.119 187.193L180.754 187.763L181.208 187.921L201.485 200.308L212.162 206.823L213.439 207.604L215.502 212.563L218.878 217.268L223.488 221.615" stroke="#231F20" stroke-linecap="round" stroke-linejoin="round"/>
    <path d="M19.1431 135.076L60.8751 133.235L103.098 138.991L143.849 152.074L181.208 171.862L213.439 197.443L231.322 218.529L239.029 227.614L238.966 228.088" stroke="#231F20" stroke-linecap="round" stroke-linejoin="round"/>
    <path d="M133.114 97.1614L166.485 120.511L197.091 149.726L223.488 183.431L244.452 220.059L248.124 229.613" stroke="#231F20" stroke-linecap="round" stroke-linejoin="round"/>
    <path d="M630.116 313.567L607.317 345.352L576.182 374.683L537.489 400.844L492.18 423.186L441.38 441.16L386.333 454.322L328.396 462.357L269.003 465.052L209.604 462.357L151.666 454.322L96.6199 441.16L45.8198 423.186L0.511147 400.844L-38.1824 374.683L-69.3166 345.352L-92.1159 313.567L-106.027 280.12L-110.7 245.824L-106.027 211.529L-92.1159 178.077L-75.9316 155.514L-69.3166 146.292L-49.6454 122.125L-34.8854 108.214L-20.3259 94.4973L1.75609 79.5677L6.18199 76.5765L16.1204 69.8609L36.9416 56.4981L50.1929 49.9617L76.0994 37.1898L89.6935 32.3786L120.01 21.6535L132.349 18.6992L167.587 10.2743L178.538 10.116L190.824 19.0158L229.428 13.6664L269.003 11.8675L308.572 13.6664L347.17 19.0158L359.462 10.116L370.413 10.2743L380.452 12.6747L405.651 18.6992L417.99 21.6535L448.306 32.3786L461.901 37.1898L487.807 49.9617L501.058 56.4981L521.879 69.8609L531.818 76.5765L536.244 79.5677L558.326 94.4973" stroke="#231F20" stroke-linecap="round" stroke-linejoin="round"/>
    <path d="M347.17 19.0158L383.844 27.7837L401.901 20.2661L417.99 21.6536" stroke="#231F20" stroke-linecap="round" stroke-linejoin="round"/>
    <path d="M622.23 248.167L609.121 279.677L587.645 309.61L558.326 337.238L521.88 361.875L479.209 382.919L431.357 399.848L379.513 412.25L324.946 419.81L269.003 422.353L213.054 419.81L158.487 412.25L106.643 399.848L58.7916 382.919L16.1206 361.875L-20.3257 337.238L-49.6452 309.61L-71.1205 279.677L-84.2241 248.167L-88.6289 215.865L-84.2241 183.563L-71.1205 152.058L-43.1198 131.932L-23.4117 104.463L8.16033 94.1282L43.5991 91.6171L81.2481 97.035L119.34 110.134L156.098 130.302L189.801 156.595L218.878 187.779L241.967 222.401L244.943 229.175" stroke="#231F20" stroke-linecap="round" stroke-linejoin="round"/>
    <path d="M235.848 227.345L233.443 224.76L222.797 213.322L212.748 202.523L213.439 197.443L215.502 192.489L218.878 187.778L223.488 183.431L229.222 179.559L235.932 176.246L243.46 173.587L251.616 171.635L260.198 170.443L269.003 170.048L277.802 170.443L286.384 171.635L294.54 173.587L302.062 176.246L308.778 179.559L314.512 183.431L319.122 187.778L322.498 192.489L324.561 197.443L325.252 202.523L324.561 207.604L322.498 212.563L319.122 217.268L314.512 221.615" stroke="#231F20" stroke-linecap="round" stroke-linejoin="round"/>
    <path d="M302.147 227.345L304.557 224.76L315.203 213.322L325.252 202.523L335.824 195.19L357.884 179.892L395.713 163.516L436.965 154.163L479.72 152.269L521.969 157.924L561.744 170.865L597.183 190.485" stroke="#231F20" stroke-linecap="round" stroke-linejoin="round"/>
    <path d="M90.411 550.832L88.3115 518.461L90.411 481.322L96.62 441.16L106.643 399.848L120.01 359.321L136.094 321.47L154.151 288.065L173.337 260.675L192.744 240.575L211.471 228.706L228.647 225.62" stroke="#231F20" stroke-linecap="round" stroke-linejoin="round"/>
    <path d="M597.183 190.485L593.142 220.128L581.12 249.043L561.412 276.512L534.503 301.866L501.058 324.471L461.901 343.785L417.99 359.321L370.413 370.7L320.336 377.638L269.003 379.975L217.659 377.638L167.587 370.7L120.01 359.321L76.0994 343.785L36.9417 324.471L3.49168 301.866L-23.4118 276.512L-43.1199 249.043L-55.1421 220.128" stroke="#231F20" stroke-linecap="round" stroke-linejoin="round"/>
    <path d="M-20.3257 94.4974L3.49181 79.1088L15.1605 71.2219L36.9418 56.4981L61.999 51.3492L90.121 54.6464L120 66.2419L150.227 85.5871L179.398 111.785L206.149 143.602L229.223 179.559L247.543 217.97L251.484 230.082" stroke="#231F20" stroke-linecap="round" stroke-linejoin="round"/>
    <path d="M392.859 53.8393L418 66.242L439.476 80.7548L456.752 97.035L469.407 114.676L477.125 133.235L479.72 152.269L477.125 171.303L469.407 189.868L456.752 207.504L439.476 223.784L418 238.302L392.859 250.699L364.663 260.675L334.114 267.982L301.962 272.439L269.003 273.938L236.038 272.439L203.886 267.982L173.337 260.675L145.141 250.699L120 238.302L98.5243 223.784L81.248 207.504L68.5928 189.868L60.8752 171.303L58.2798 152.269L60.8752 133.235L68.5928 114.676L81.248 97.035L98.5243 80.7548L120 66.242L145.141 53.8393L173.337 43.8687L203.886 36.5621L236.038 32.1043L269.003 30.6061L301.962 32.1043L334.114 36.5621L364.663 43.8687L392.859 53.8393ZM392.859 53.8393L417.694 39.7591L447.879 54.6465L473.659 72.0767L505.832 71.5175L529.834 94.1282L561.412 104.463L581.12 131.932L609.121 152.058L622.229 183.563L644.027 211.529L657.526 243.424L662.374 278.955L657.526 314.485L643.114 349.14L619.492 382.064L587.244 412.456L547.153 439.556L500.22 462.7L447.584 481.322L390.559 494.964L330.538 503.284L269.003 506.08L207.462 503.284L147.441 494.964L90.411 481.322L37.7804 462.7L-9.15823 439.556L-49.2444 412.456L-81.4969 382.064L-105.119 349.14L-119.526 314.485L-124.368 278.955L-119.526 243.424L-106.285 211.856L-105.911 210.669L-105.119 208.77L-92.1159 178.077L-71.1206 152.058L-49.6453 122.125L-23.4118 104.463L3.49169 79.1089L32.1624 71.5175L61.9988 51.3493L96.9259 34.1196L136.094 20.2662L178.538 10.1161L223.203 3.92273L269.003 1.83891L314.797 3.92273L359.462 10.1161L401.901 20.2662L441.069 34.1196L476.001 51.3493L505.832 71.5175L534.503 79.1089L558.326 94.4974L572.885 108.214L587.645 122.125L609.121 152.058L630.116 178.077L643.114 208.77L643.911 210.669L644.285 211.856L648.7 245.825L662.374 278.955L667 313.709L662.374 348.464L662.258 349.271L662.12 349.862L647.519 384.723L623.617 418.032L590.99 448.783L550.429 476.2L502.936 499.617L449.688 518.461L391.988 532.257L331.26 540.676L269.003 543.509L206.74 540.676L146.012 532.257L88.3115 518.461L35.0584 499.617L-12.4288 476.2L-52.9898 448.783L-85.6221 418.032L-81.4969 382.064L-69.3165 345.352L-49.6453 309.61L-23.4118 276.512L8.16024 247.602L43.599 224.237L81.248 207.504L119.34 198.192L156.098 196.731L189.801 203.193L197.091 210.057L206.149 216.182L218.814 221.294L226.458 223.646L228.943 225.556L230.462 225.377L232.43 226.527L235.848 227.345L238.85 228.057L238.966 228.088L239.33 228.173L239.546 228.226L241.535 228.7L242.015 228.769L244.942 229.175L248.123 229.613L251.484 230.083L254.965 230.621L255.097 230.578L258.41 230.731L261.918 230.89L265.458 231.053L269.003 231.212L272.542 231.053L276.082 230.89L279.59 230.731L282.903 230.578L283.019 230.679L288.822 235.78L308.155 233.095L320.905 246.4L334.114 267.982L347.17 296.838L359.462 331.62L370.413 370.7L379.513 412.25L386.333 454.322L390.559 494.964L391.988 532.257L390.559 564.474L386.333 590.097L379.513 607.934L370.413 617.145L320.335 624.087L269.003 626.419L217.659 624.087L213.054 615.493L158.487 607.934L106.643 595.531L96.6199 576.93L90.411 550.832L37.7804 532.215L-9.15823 509.066L-49.2444 481.966L-81.4969 451.579L-85.6221 418.032L-109.519 384.723L-124.099 349.657L-119.526 314.485L-106.027 280.12L-84.2242 248.167L-55.1421 220.128L-59.1829 190.485L-55.1421 160.842L-20.1412 144.425L19.1432 135.076L28.4117 112.793L43.599 91.617L64.341 72.0767L98.5243 80.7548L133.114 97.1616L150.226 85.5872L170.272 75.7062L192.744 67.7508L217.095 61.9266L242.722 58.3762L269.003 57.184L295.273 58.3762L320.905 61.9266L345.256 67.7508L367.728 75.7062L387.768 85.5872L404.886 97.1616L439.476 80.7548L473.659 72.0767L494.396 91.617L529.834 94.1282L547.417 118.633L581.12 131.932L593.142 160.842L622.229 183.563L626.624 215.865L648.7 245.825L644.027 280.12L657.526 314.485L662.105 349.657L657.526 383.995L649.74 402.707L643.114 418.649L619.492 451.579L587.244 481.966L547.153 509.066L500.22 532.215L447.584 550.832L390.559 564.474L330.538 572.794L269.003 575.59L207.462 572.794L147.441 564.474L90.411 550.832" stroke="#231F20" stroke-linecap="round" stroke-linejoin="round"/>
    <path d="M558.141 144.425L561.744 170.865L558.141 197.311L547.417 223.098L529.834 247.602L505.832 270.218L476.001 290.387L441.069 307.611L401.901 321.47L359.462 331.62L314.797 337.813L269.003 339.892L223.203 337.813L178.538 331.62L136.094 321.47L96.9259 307.611L61.9988 290.387L32.1623 270.218L8.16022 247.602L-9.41672 223.098L-20.1412 197.311L-23.7441 170.865L-20.1412 144.425L-9.41672 118.633L8.16022 94.1282L32.1623 71.5175L64.341 72.0767L90.1209 54.6465L120.306 39.7591L154.151 27.7838L173.337 43.8687L192.744 67.7508L211.471 98.3275L228.647 134.164L243.46 173.587L255.224 214.747L258.41 230.731" stroke="#231F20" stroke-linecap="round" stroke-linejoin="round"/>
    <path d="M494.396 91.6171L509.588 112.793L518.857 135.076L521.969 157.925L518.857 180.778L509.588 203.062L494.396 224.237L473.659 243.778L447.879 261.208L417.694 276.09L383.844 288.065L347.17 296.839L308.572 302.188L269.003 303.987L229.428 302.188L190.824 296.839L154.151 288.065L120.305 276.09L90.1208 261.208L64.341 243.778L43.5989 224.237L28.4116 203.062L19.1431 180.778L16.0308 157.925L19.1431 135.076" stroke="#231F20" stroke-linecap="round" stroke-linejoin="round"/>
    <path d="M190.824 19.0158L203.886 36.5621L217.095 61.9266L229.845 93.9329L241.535 131.083L251.616 171.635L259.624 213.697L261.918 230.89" stroke="#231F20" stroke-linecap="round" stroke-linejoin="round"/>
    <path d="M76.0994 37.1898L96.9258 34.1195L120.305 39.759L145.141 53.8392L170.272 75.7061L194.522 104.326L216.752 138.374L235.932 176.246L251.162 216.182L254.949 230.563" stroke="#231F20" stroke-linecap="round" stroke-linejoin="round"/>
    <path d="M76.0996 590.229L58.7917 578.602L45.82 558.956L37.7806 532.215L35.0586 499.617L37.7806 462.7L45.82 423.186L58.7917 382.918L76.0996 343.785L96.926 307.611L120.306 276.09L145.141 250.699L170.272 232.625L194.522 222.707L216.752 221.41" stroke="#231F20" stroke-linecap="round" stroke-linejoin="round"/>
    <path d="M269.003 231.211V212.837V170.047V128.572V90.3561V57.1839V30.606V11.8675V1.8388V1" stroke="#231F20" stroke-linecap="round" stroke-linejoin="round"/>
    <path d="M272.542 231.053L273.745 213.053L277.802 170.443L282.903 129.205L288.821 91.2582L295.273 58.3762L301.962 32.1043L308.572 13.6665L314.797 3.92267L320.335 3.33182L345.952 6.88222L361.039 8.97131L370.413 10.2743" stroke="#231F20" stroke-linecap="round" stroke-linejoin="round"/>
    <path d="M213.054 615.493L209.604 598.126L207.462 572.794L206.74 540.676L207.462 503.284L209.604 462.357L213.054 419.81L217.659 377.638L223.203 337.813L229.428 302.188L236.038 272.439L242.722 249.95L249.178 235.78L254.965 230.621L255.097 230.578" stroke="#231F20" stroke-linecap="round" stroke-linejoin="round"/>
    <path d="M309.353 225.619L326.523 228.705L343.478 222.707L367.728 232.625L392.859 250.699L417.694 276.09L441.069 307.611L461.901 343.785L479.208 382.918L492.18 423.186L500.22 462.699L502.936 499.617L500.22 532.214L492.18 558.956L479.208 578.602L461.901 590.229" stroke="#231F20" stroke-linecap="round" stroke-linejoin="round"/>
    <path d="M276.082 230.89L278.377 213.697L286.384 171.635L296.465 131.083L308.155 93.9329L320.905 61.9266L334.114 36.5621L347.17 19.0158" stroke="#231F20" stroke-linecap="round" stroke-linejoin="round"/>
    <path d="M279.59 230.731L282.776 214.747L294.54 173.587L309.353 134.164L326.523 98.3275L345.256 67.7508L364.663 43.8687L383.844 27.7838L417.695 39.7591L441.069 34.1196L461.901 37.1899" stroke="#231F20" stroke-linecap="round" stroke-linejoin="round"/>
    <path d="M120.01 21.6536L136.094 20.2661L154.151 27.7837L190.824 19.0158" stroke="#231F20" stroke-linecap="round" stroke-linejoin="round"/>
    <path d="M288.822 235.78L295.273 249.95L301.962 272.439L308.572 302.188L314.797 337.813L320.336 377.638L324.946 419.81L328.396 462.357L330.538 503.284L331.26 540.676L330.538 572.793L328.396 598.126L324.946 615.493L320.336 624.087" stroke="#231F20" stroke-linecap="round" stroke-linejoin="round"/>
    <path d="M283.051 230.563L286.833 216.182L302.062 176.246L321.243 138.374L343.478 104.326L367.728 75.7063L392.859 53.8394" stroke="#231F20" stroke-linecap="round" stroke-linejoin="round"/>
    <path d="M282.903 230.578L283.051 230.563L286.511 230.083L289.871 229.613L293.058 229.175L295.985 228.769L296.465 228.7L308.155 233.095L326.523 228.706L345.256 240.575L364.663 260.675L383.844 288.065L401.901 321.47L417.99 359.321L431.357 399.847L441.38 441.16L447.584 481.322L449.689 518.461L447.584 550.832L441.38 576.93L431.357 595.531L417.99 605.765L376.548 615.678L370.413 617.145" stroke="#231F20" stroke-linecap="round" stroke-linejoin="round"/>
    <path d="M296.465 228.7L298.449 228.226L298.67 228.173L299.034 228.088L299.15 228.057L302.147 227.345L305.565 226.527L307.538 225.377L309.062 225.556L311.21 224.728L321.243 221.41L343.478 222.707L358.597 215.248L371.51 206.517L381.902 196.731L418.66 198.192L456.752 207.503L494.396 224.237L529.835 247.602L561.412 276.512L587.645 309.61L607.317 345.352L619.492 382.064L623.617 418.032L619.492 451.579L607.317 481.121L587.645 505.294L572.732 519.348L558.326 532.921" stroke="#231F20" stroke-linecap="round" stroke-linejoin="round"/>
    <path d="M286.511 230.082L290.457 217.97L308.778 179.559L331.851 143.602L358.596 111.785L387.768 85.5871L418 66.2419L447.879 54.6464L476.001 51.3492L501.058 56.4981L522.834 71.2219L534.503 79.1088L561.412 104.463L587.645 122.125L607.317 146.292L613.932 155.514L630.116 178.077L644.285 211.856L657.526 243.424" stroke="#231F20" stroke-linecap="round" stroke-linejoin="round"/>
    <path d="M321.243 221.41L331.851 216.182L358.597 215.248L387.768 222.739L418.001 238.302L447.879 261.208L476.001 290.386L501.058 324.471L521.88 361.874L537.489 400.844L547.153 439.556L550.429 476.199L547.153 509.066L537.489 536.614L521.88 557.558L501.058 570.921L476.175 583.191L461.901 590.229L427.696 602.331L417.99 605.765" stroke="#231F20" stroke-linecap="round" stroke-linejoin="round"/>
    <path d="M289.871 229.613L293.548 220.059L314.512 183.431L340.909 149.726L371.51 120.511L404.886 97.1614" stroke="#231F20" stroke-linecap="round" stroke-linejoin="round"/>
    <path d="M269.003 626.419V618.036V600.827V575.59V543.509V506.08V465.052V422.353V379.975V339.892V303.987V273.938V251.142V236.677V231.211" stroke="#231F20" stroke-linecap="round" stroke-linejoin="round"/>
    <path d="M293.058 229.175L296.038 222.401L319.122 187.779L348.199 156.595L381.902 130.302L418.66 110.134L456.752 97.035L494.396 91.6171" stroke="#231F20" stroke-linecap="round" stroke-linejoin="round"/>
    <path d="M224.095 222.021L223.641 221.679L218.324 219.352L211.503 216.366L197.091 210.057L166.485 206.517L133.114 211.17L119.34 198.192L109.254 184.133L103.098 169.335L101.03 154.163L103.098 138.991L109.254 124.193L119.34 110.134L133.114 97.1614" stroke="#231F20" stroke-linecap="round" stroke-linejoin="round"/>
    <path d="M313.905 222.021L314.206 221.747L319.122 217.268L320.9 216.408L331.857 211.101L348.199 203.193L353.532 195.75L356.792 187.921L357.884 179.891L356.792 171.862L353.532 164.033L348.199 156.595L340.909 149.726L331.851 143.601L321.243 138.373L309.353 134.164L296.465 131.083L282.903 129.205L269.003 128.572L255.097 129.205L241.535 131.083L228.647 134.164L216.752 138.373L206.149 143.601L197.091 149.726L189.801 156.595L184.462 164.033L181.208 171.862L180.116 179.891L181.208 187.921L184.462 195.75L189.801 203.193L206.144 211.101L217.1 216.408L217.443 216.572L218.878 217.268L223.641 221.679L224.095 222.021L229.223 225.493L230.267 226.004L232.43 226.527" stroke="#231F20" stroke-linecap="round" stroke-linejoin="round"/>
    <path d="M308.778 225.493L313.905 222.021L314.512 221.615L316.69 220.66L326.497 216.366L340.909 210.057L371.51 206.517L404.886 211.17L418.66 198.192L428.746 184.133L434.897 169.335L436.965 154.163L434.897 138.991L428.746 124.193L418.66 110.134L404.886 97.1614" stroke="#231F20" stroke-linecap="round" stroke-linejoin="round"/>
    <path d="M295.985 228.769L296.086 228.558L297.858 224.944L322.498 192.489L353.532 164.033L389.509 140.906L428.746 124.193L469.407 114.676L509.588 112.793L547.417 118.633L558.141 144.424L593.142 160.842L597.183 190.485L626.624 215.865L622.23 248.167L644.027 280.12L630.116 313.567L643.114 349.139L647.519 384.723L643.114 418.649L630.116 449.342L617.63 466.746L607.317 481.121L576.182 510.453L537.489 536.614L492.18 558.956L441.38 576.929L386.334 590.097L328.396 598.126L269.003 600.827L209.604 598.126L151.667 590.097L96.62 576.929L45.8199 558.956L0.511253 536.614L-38.1823 510.453L-49.2444 481.966L-52.9897 448.783L-49.2444 412.456L-38.1823 374.683L-20.3258 337.238L3.49174 301.866L32.1624 270.218L64.3411 243.778L98.5243 223.783L133.114 211.17L150.226 222.739L170.272 232.625L192.745 240.575L217.095 246.399L242.722 249.95L269.003 251.142L295.273 249.95L320.905 246.399L345.256 240.575L367.728 232.625L387.768 222.739L404.886 211.17L439.476 223.783L473.659 243.778L505.833 270.218L534.503 301.866L558.326 337.238L576.182 374.683L587.245 412.456L590.99 448.783L587.245 481.966L576.182 510.453L558.326 532.921L532.71 550.241L521.88 557.558L487.506 574.508L479.209 578.602L431.357 595.531L379.513 607.933L324.946 615.493L269.003 618.036L213.054 615.493" stroke="#231F20" stroke-linecap="round" stroke-linejoin="round"/>
    <path d="M239.33 228.173L239.029 227.614L240.142 224.944L241.967 222.401L244.452 220.059L247.543 217.97L251.162 216.182L255.224 214.747L259.623 213.697L264.255 213.053L269.003 212.837L273.745 213.053L278.377 213.697L282.776 214.747L286.833 216.182L290.457 217.97L293.548 220.059L296.038 222.401L297.858 224.944L298.966 227.614L299.034 228.088" stroke="#231F20" stroke-linecap="round" stroke-linejoin="round"/>
    <path d="M298.67 228.173L298.966 227.614L301.809 224.264L306.678 218.529L324.561 197.443L356.793 171.862L394.151 152.074L434.897 138.991L477.125 133.235L518.857 135.076L558.141 144.424" stroke="#231F20" stroke-linecap="round" stroke-linejoin="round"/>
    <path d="M217.659 3.33176L259.739 1.42204L269.003 1L278.261 1.42204L320.335 3.33176" stroke="#231F20" stroke-linecap="round" stroke-linejoin="round"/>
    <path d="M167.587 617.144L161.447 615.678L120.01 605.765L106.643 595.531L58.7916 578.602L50.4884 574.508L16.1205 557.558L5.29057 550.241L-20.3258 532.921L-38.1823 510.453L-69.3165 481.121L-81.4969 451.579L-105.119 418.649L-111.745 402.707L-119.526 383.995L-124.126 349.862L-124.263 349.271L-124.368 348.464L-129 313.709L-124.368 278.955L-110.7 245.825L-88.629 215.865L-59.1828 190.485L-23.7441 170.865L16.0309 157.924L58.2799 152.269L101.03 154.163L142.287 163.516L180.116 179.892L202.177 195.19L212.748 202.523L213.439 207.604L221.89 216.023L230.652 224.749" stroke="#231F20" stroke-linecap="round" stroke-linejoin="round"/>
    <path d="M120.01 605.765L110.304 602.331L76.0993 590.229L61.8194 583.191L36.9416 570.921L16.1204 557.558L0.511091 536.614L-9.15834 509.066L-12.429 476.199L-9.15834 439.556L0.511091 400.844L16.1204 361.874L36.9416 324.471L61.9987 290.386L90.1208 261.208L119.999 238.302L150.226 222.739L179.398 215.248L206.149 216.182L216.752 221.41L227.017 224.818L229.222 225.493" stroke="#231F20" stroke-linecap="round" stroke-linejoin="round"/>
    <path d="M-20.3256 532.922L-34.7322 519.348L-49.6451 505.294L-69.3163 481.122L-79.6293 466.746L-92.1157 449.342L-105.119 418.649L-109.519 384.723L-105.119 349.14L-92.1157 313.567L-71.1204 279.677L-43.1197 249.043L-9.41651 223.098L28.4119 203.062L68.593 189.868L109.254 184.133L148.486 186.127L182.194 195.143L184.463 195.75L202.799 205.684L214.004 211.75L215.502 212.563L222.217 218.888L226.458 223.647L227.018 224.818L228.648 225.62" stroke="#231F20" stroke-linecap="round" stroke-linejoin="round"/>
    <path d="M-119.526 243.424L-106.285 211.856L-84.2241 183.563L-55.1419 160.842L-43.1198 131.932L-9.41655 118.633L28.4118 112.793L68.593 114.676L109.254 124.193L148.486 140.906L184.463 164.033L215.502 192.489L240.142 224.944L241.909 228.558L242.015 228.769" stroke="#231F20" stroke-linecap="round" stroke-linejoin="round"/>
    <path d="M307.348 224.749L316.11 216.023L324.561 207.604L327.927 205.546L336.515 200.308L356.793 187.921L358.881 187.193L394.151 174.959L434.897 169.335L477.125 171.303L518.857 180.778L558.141 197.311L593.142 220.128L622.23 248.167" stroke="#231F20" stroke-linecap="round" stroke-linejoin="round"/>
    <path d="M311.473 222.945L315.783 218.888L322.498 212.563L323.379 212.083L323.996 211.75L335.201 205.684L353.532 195.75L355.806 195.143L389.509 186.127L428.746 184.133L469.407 189.868L509.588 203.062L547.417 223.098L581.12 249.043L609.121 279.677L630.116 313.567" stroke="#231F20" stroke-linecap="round" stroke-linejoin="round"/>
    <path d="M305.565 226.527L307.733 226.005L308.772 225.493L311.542 223.646L319.186 221.294L331.851 216.182L340.909 210.057L348.199 203.193L381.902 196.731L389.509 186.127L394.151 174.959L395.713 163.517L394.151 152.074L389.509 140.906L381.902 130.302L371.51 120.511L358.597 111.785L343.478 104.326L326.523 98.3275L308.155 93.933L288.822 91.2583L269.003 90.3562L249.179 91.2583L229.845 93.933L211.471 98.3275L194.522 104.326L179.398 111.785L166.485 120.511L156.098 130.302L148.486 140.906L143.849 152.074L142.287 163.517L143.849 174.959L148.486 186.127L156.098 196.731L166.485 206.517L179.398 215.248L194.522 222.707L211.471 228.706L229.845 233.095L249.179 235.78L269.003 236.677L288.822 235.78" stroke="#231F20" stroke-linecap="round" stroke-linejoin="round"/>
    <path d="M167.587 10.2743L176.961 8.97131L192.048 6.88222L217.659 3.33182L223.204 3.92267L229.428 13.6665L236.038 32.1043L242.722 58.3762L249.179 91.2582L255.097 129.205L260.198 170.443L264.255 213.053L265.458 231.053" stroke="#231F20" stroke-linecap="round" stroke-linejoin="round"/>
</svg>
